<svg xmlns="http://www.w3.org/2000/svg" width="69.864" height="17.806" viewBox="0 0 69.864 17.806">
  <g id="Group_91" data-name="Group 91" transform="translate(-536 -1233.995)">
    <path id="Path_177" data-name="Path 177" d="M63.582,39.624H57.9V53.808H54.287V39.624H48.58V36.008h15Z" transform="translate(511.658 1197.993)" fill="#1c1a42"/>
    <path id="Path_178" data-name="Path 178" d="M81.479,36.007h3.616V39.68H81.479Zm3.616,17.8H81.478V40.585h3.616Z" transform="translate(495.175 1197.994)" fill="#1c1a42"/>
    <rect id="Rectangle_76" data-name="Rectangle 76" width="3.617" height="17.799" transform="translate(581.682 1234.001)" fill="#1c1a42"/>
    <rect id="Rectangle_77" data-name="Rectangle 77" width="3.618" height="17.799" transform="translate(586.71 1234.001)" fill="#1c1a42"/>
    <g id="Group_90" data-name="Group 90" transform="translate(536 1233.995)">
      <path id="Path_179" data-name="Path 179" d="M111.713,35.995h3.617V46.736a3.381,3.381,0,0,0,.268,1.342,3.441,3.441,0,0,0,6.357,0,3.38,3.38,0,0,0,.267-1.342V35.995h3.617V46.736a6.908,6.908,0,0,1-.55,2.756,7.068,7.068,0,0,1-3.758,3.758,7.163,7.163,0,0,1-5.509,0,7.066,7.066,0,0,1-3.759-3.758,6.934,6.934,0,0,1-.55-2.756Z" transform="translate(-55.975 -35.995)" fill="#1c1a42"/>
      <path id="Path_180" data-name="Path 180" d="M19.3,36.441.66,39.562a.821.821,0,0,0-.66.78v9.365a.821.821,0,0,0,.66.779L19.3,53.608a.549.549,0,0,0,.659-.558V37a.548.548,0,0,0-.659-.557M17.864,50.291c0,.835-.625.863-.8.833L2,48.984a.4.4,0,0,1-.325-.384V41.645A.4.4,0,0,1,2,41.262L17.1,38.79c.48,0,.76.159.76.8Z" transform="translate(0 -36.214)" fill="#1c1a42"/>
      <path id="Path_181" data-name="Path 181" d="M6.1,50.532a.323.323,0,0,1-.322-.324V48.145a.321.321,0,0,1,.262-.316l2.144-.406a.324.324,0,1,1,.118.637l-1.879.354v1.794a.324.324,0,0,1-.325.324" transform="translate(-2.894 -41.718)" fill="#1c1a42"/>
      <path id="Path_182" data-name="Path 182" d="M30.405,60.46l-.043,0-2.1-.283a.323.323,0,1,1,.086-.641l1.736.235V57.791a.324.324,0,0,1,.647,0v2.346a.323.323,0,0,1-.323.323" transform="translate(-14.019 -46.754)" fill="#1c1a42"/>
    </g>
  </g>
</svg>
