<svg xmlns="http://www.w3.org/2000/svg" xmlns:xlink="http://www.w3.org/1999/xlink" width="75.39" height="16.846" viewBox="0 0 75.39 16.846">
  <defs>
    <clipPath id="clip-path">
      <rect id="Rectangle_71" data-name="Rectangle 71" width="75.39" height="16.846" fill="none"/>
    </clipPath>
  </defs>
  <g id="Group_77" data-name="Group 77" transform="translate(0 0)">
    <g id="Group_76" data-name="Group 76" transform="translate(0 0)" clip-path="url(#clip-path)">
      <path id="Path_155" data-name="Path 155" d="M44.465,5.606a2.6,2.6,0,0,1,1.242.851,2.268,2.268,0,0,1,.4,1.377,2.5,2.5,0,0,1-.342,1.289,2.667,2.667,0,0,1-.978.954,2.768,2.768,0,0,1-.834.314,6.762,6.762,0,0,1-1.307.1H38.588a1.074,1.074,0,0,1-.733-.2.855.855,0,0,1-.221-.659A.85.85,0,0,1,37.845,9a.831.831,0,0,1,.618-.214H38.6V3h-.132a.819.819,0,0,1-.618-.218.873.873,0,0,1-.211-.636.849.849,0,0,1,.225-.656,1.066,1.066,0,0,1,.73-.206H42.16a4.1,4.1,0,0,1,2.487.637A2.183,2.183,0,0,1,45.5,3.783a2.137,2.137,0,0,1-.26,1.067,2.02,2.02,0,0,1-.772.756M40.506,2.953V4.908h1.048A2.894,2.894,0,0,0,42.9,4.683a.8.8,0,0,0,.392-.761.819.819,0,0,0-.353-.737,2.14,2.14,0,0,0-1.145-.233Zm0,3.516V8.836H41.67a3.953,3.953,0,0,0,1.74-.272.95.95,0,0,0,.5-.909.966.966,0,0,0-.481-.915,3.7,3.7,0,0,0-1.685-.272Z" transform="translate(-18.967 -0.646)" fill="#282523"/>
      <path id="Path_156" data-name="Path 156" d="M64.338,8.789h.132A.869.869,0,0,1,65.106,9a.84.84,0,0,1,.217.625.84.84,0,0,1-.229.66,1.144,1.144,0,0,1-.757.2H62a1.156,1.156,0,0,1-.76-.2.842.842,0,0,1-.225-.664.807.807,0,0,1,.225-.644A1.169,1.169,0,0,1,62,8.789h.272l-.318-.908H58.6l-.334.908h.272a1.156,1.156,0,0,1,.756.2.807.807,0,0,1,.23.641.841.841,0,0,1-.23.66,1.141,1.141,0,0,1-.756.2h-2a1.138,1.138,0,0,1-.76-.2.847.847,0,0,1-.226-.66A.839.839,0,0,1,55.769,9a.868.868,0,0,1,.636-.214h.132L58.617,3H58a1.138,1.138,0,0,1-.757-.2.829.829,0,0,1-.229-.653.837.837,0,0,1,.229-.659,1.135,1.135,0,0,1,.757-.2h2.911a.993.993,0,0,1,.97.745v.024ZM60.271,3,59.145,6.274H61.4Z" transform="translate(-27.997 -0.647)" fill="#282523"/>
      <path id="Path_157" data-name="Path 157" d="M81.971,7.276V3h-.427a1.081,1.081,0,0,1-.734-.2.847.847,0,0,1-.222-.653.859.859,0,0,1,.222-.656,1.062,1.062,0,0,1,.734-.206h2.2a1.066,1.066,0,0,1,.73.206.849.849,0,0,1,.225.656.879.879,0,0,1-.213.633A.807.807,0,0,1,83.881,3h-.133v7.047a.823.823,0,0,1-.078.458c-.051.062-.168.093-.349.093h-.776a1.241,1.241,0,0,1-.525-.078.639.639,0,0,1-.259-.272l-3.23-5.673V8.79h.451a1.075,1.075,0,0,1,.722.194.83.83,0,0,1,.217.645.853.853,0,0,1-.222.659,1.044,1.044,0,0,1-.717.2H76.755a1.076,1.076,0,0,1-.73-.2.846.846,0,0,1-.225-.659A.859.859,0,0,1,76.01,9a.834.834,0,0,1,.621-.214h.124V3h-.124a.82.82,0,0,1-.614-.221.866.866,0,0,1-.217-.633.841.841,0,0,1,.23-.656,1.066,1.066,0,0,1,.725-.206h1.273a1.122,1.122,0,0,1,.622.12,1.577,1.577,0,0,1,.365.486Z" transform="translate(-38.202 -0.647)" fill="#282523"/>
      <path id="Path_158" data-name="Path 158" d="M101.2,7.276V3h-.427a1.081,1.081,0,0,1-.734-.2.847.847,0,0,1-.222-.653.859.859,0,0,1,.222-.656,1.062,1.062,0,0,1,.734-.206h2.2a1.066,1.066,0,0,1,.73.206.849.849,0,0,1,.225.656.879.879,0,0,1-.213.633.807.807,0,0,1-.609.221h-.133v7.047a.823.823,0,0,1-.078.458c-.051.062-.168.093-.349.093h-.776a1.241,1.241,0,0,1-.525-.078.639.639,0,0,1-.259-.272l-3.23-5.673V8.79h.451a1.075,1.075,0,0,1,.722.194.83.83,0,0,1,.217.645.853.853,0,0,1-.222.659,1.044,1.044,0,0,1-.717.2H95.987a1.076,1.076,0,0,1-.73-.2.846.846,0,0,1-.225-.659A.861.861,0,0,1,95.241,9a.836.836,0,0,1,.622-.214h.124V3h-.124a.82.82,0,0,1-.614-.221.866.866,0,0,1-.217-.633.841.841,0,0,1,.23-.656,1.066,1.066,0,0,1,.725-.206H97.26a1.122,1.122,0,0,1,.622.12,1.578,1.578,0,0,1,.365.486Z" transform="translate(-47.895 -0.647)" fill="#282523"/>
      <path id="Path_159" data-name="Path 159" d="M121.011,2.921H117.4V4.908h1.367V4.816a.966.966,0,0,1,.194-.66.751.751,0,0,1,.59-.217.819.819,0,0,1,.57.2.643.643,0,0,1,.222.5c0,.011,0,.044.008.1s.008.114.008.17V6.515a1.169,1.169,0,0,1-.187.745.738.738,0,0,1-.6.225.8.8,0,0,1-.6-.209.86.86,0,0,1-.2-.622V6.515H117.4V8.836h3.609V7.913a1.122,1.122,0,0,1,.2-.746.824.824,0,0,1,.648-.225.8.8,0,0,1,.633.222,1.153,1.153,0,0,1,.19.749V9.79a.725.725,0,0,1-.164.559,1.038,1.038,0,0,1-.644.139h-6.357a1.076,1.076,0,0,1-.734-.2.853.853,0,0,1-.222-.659A.858.858,0,0,1,114.77,9a.823.823,0,0,1,.614-.214h.132V3h-.132a.808.808,0,0,1-.609-.222.873.873,0,0,1-.214-.632.852.852,0,0,1,.225-.656,1.068,1.068,0,0,1,.731-.206h6.357a1.026,1.026,0,0,1,.64.144.745.745,0,0,1,.167.571V3.736a1.171,1.171,0,0,1-.195.756.781.781,0,0,1-.628.229.807.807,0,0,1-.648-.233,1.152,1.152,0,0,1-.2-.753Z" transform="translate(-57.737 -0.646)" fill="#282523"/>
      <path id="Path_160" data-name="Path 160" d="M140.051,6.258a1.293,1.293,0,0,1,.4.45c.02.031.039.057.055.078l1.265,2h.241a.981.981,0,0,1,.68.209.814.814,0,0,1,.228.629.838.838,0,0,1-.228.659,1.138,1.138,0,0,1-.757.2h-.954a.927.927,0,0,1-.823-.459l-.024-.016-1.9-2.925a.843.843,0,0,0-.249-.26.544.544,0,0,0-.3-.089h-.729V8.788h.124a.858.858,0,0,1,.632.214.846.846,0,0,1,.214.625.851.851,0,0,1-.222.659,1.1,1.1,0,0,1-.748.2h-2a1.107,1.107,0,0,1-.746-.2.85.85,0,0,1-.225-.659.75.75,0,0,1,.839-.839h.131V3h-.131a.83.83,0,0,1-.622-.221.866.866,0,0,1-.217-.633.842.842,0,0,1,.229-.656,1.1,1.1,0,0,1,.741-.206h3.578a4.093,4.093,0,0,1,2.492.64,2.227,2.227,0,0,1,.845,1.891,2.466,2.466,0,0,1-.469,1.505,2.712,2.712,0,0,1-1.347.939m-3.19-3.306v2.2h1.048a2.647,2.647,0,0,0,1.359-.252.928.928,0,0,0,.387-.842.978.978,0,0,0-.353-.843,1.953,1.953,0,0,0-1.137-.259Z" transform="translate(-67.524 -0.646)" fill="#282523"/>
      <path id="Path_161" data-name="Path 161" d="M8.979,18.27l.129-.046q.339-.161.662-.305t.662-.305c.081-.043.165-.081.249-.118a1.412,1.412,0,0,0,.242-.137c.263-.12.521-.251.775-.4l.762-.435c.114-.067.224-.13.329-.188s.214-.119.328-.187a.309.309,0,0,1,.126-.086.489.489,0,0,0,.143-.092l1.2-.775c.212-.144.427-.3.642-.476s.425-.35.624-.53a4.126,4.126,0,0,0,.4-.37,3.563,3.563,0,0,0,.325-.4A2.237,2.237,0,0,0,16.89,13a.832.832,0,0,0,.129-.46.182.182,0,0,0-.064-.124.634.634,0,0,0-.37-.285c-.079-.027-.159-.058-.241-.092s-.161-.064-.239-.091c-.195-.043-.386-.076-.576-.1a3.007,3.007,0,0,0-.567-.018q-.142.008-.3.01t-.3.011l-.087-.011a2.245,2.245,0,0,0-.61.006l-.6.088a.356.356,0,0,1-.161.014.4.4,0,0,1-.136.027.134.134,0,0,0-.093.032,2.514,2.514,0,0,0-.324.053l-.318.07c-.066.009-.139.018-.22.024a.58.58,0,0,0-.225.069l-.056.02a1.728,1.728,0,0,0-.491.079,3.794,3.794,0,0,1-.479.116l-.235.041a.157.157,0,0,0-.1.023.656.656,0,0,1-.089.041,1.745,1.745,0,0,0-.34.068c-.119.035-.236.066-.352.091a.232.232,0,0,0-.082.062.392.392,0,0,0-.058.071.064.064,0,0,0-.016.069,1.5,1.5,0,0,1,0,.353c-.015.116-.028.239-.038.367l-.051.621c0,.112-.007.227-.013.347a1.624,1.624,0,0,1-.045.316.934.934,0,0,0,.023.3,2.227,2.227,0,0,1,.022.386,2.372,2.372,0,0,0,.014.369c.01.108.017.216.021.325a1.769,1.769,0,0,0,.039.319.332.332,0,0,0-.01.149.121.121,0,0,1-.057.1.105.105,0,0,1-.109.018,1.762,1.762,0,0,1-.239-.03.2.2,0,0,1-.166-.118.871.871,0,0,1-.085-.209,1.776,1.776,0,0,1-.04-.2,2.6,2.6,0,0,1-.048-.491,2.711,2.711,0,0,0-.049-.492l.009-.211.022-.174c0-.083,0-.161-.01-.236a.847.847,0,0,1,.015-.223.217.217,0,0,0,.028-.156A2.486,2.486,0,0,1,8.526,14c.007-.12.011-.235.013-.348a1.676,1.676,0,0,0,.045-.316,1.864,1.864,0,0,1,.032-.292.053.053,0,0,0-.017-.077.05.05,0,0,0-.071,0H8.476a.445.445,0,0,1-.04.033,1.415,1.415,0,0,1-.61.152,2.408,2.408,0,0,0-.343.059c-.123.029-.234.054-.337.076a.107.107,0,0,1-.07.035.39.39,0,0,0-.1.023l-.483.045a.791.791,0,0,1-.436-.055.471.471,0,0,1-.356-.187.735.735,0,0,1-.114-.177c-.03-.065-.062-.127-.1-.185a.351.351,0,0,1,.026-.279c.023-.091.044-.178.064-.261A.562.562,0,0,1,5.718,12l.432-.485a.637.637,0,0,1,.176-.207,1.774,1.774,0,0,1,.452-.429q.543-.523,1.064-.934a3.269,3.269,0,0,1,.436-.382c.149-.107.3-.223.45-.345a.132.132,0,0,0,.08-.069c.077-.055.111-.108.1-.159a.5.5,0,0,1,.018-.215A.464.464,0,0,0,8.9,8.6a.488.488,0,0,1-.021-.179l-.011-.266a.722.722,0,0,0-.024-.427,1.29,1.29,0,0,0,.009-.387c-.017-.126-.03-.243-.04-.35,0-.125-.006-.237-.014-.337a.9.9,0,0,0-.088-.312.4.4,0,0,0,0-.094.3.3,0,0,1,.011-.117,1.9,1.9,0,0,0-.084-.356A.976.976,0,0,1,8.594,5.4c.008-.015,0-.03-.026-.042a.086.086,0,0,0-.057-.012c-.106.053-.2.1-.273.138a2.871,2.871,0,0,0-.249.149c-.209.116-.409.22-.6.314s-.375.193-.559.3l-.441.279a4.6,4.6,0,0,0-.448.324l-.8.508a.1.1,0,0,0-.033.022.087.087,0,0,1-.035.022,4.229,4.229,0,0,1-.428.348,4.326,4.326,0,0,0-.429.348c-.126.114-.266.229-.419.344s-.306.235-.456.358a1.629,1.629,0,0,1-.143.154.812.812,0,0,0-.125.148,3.03,3.03,0,0,1-.3.293,3.047,3.047,0,0,0-.3.293,1.549,1.549,0,0,0-.207.177,2.218,2.218,0,0,0-.177.207.178.178,0,0,0-.009.21l.046.13c-.02.021-.028.038-.023.05a.118.118,0,0,1-.018.068q-.047.162-.172.164a.872.872,0,0,1-.149.141v4.693A2.929,2.929,0,0,0,4.7,18.462H8.549a2.363,2.363,0,0,0,.294-.165.4.4,0,0,0,.136-.027" transform="translate(-0.891 -2.695)" fill="#d7a000"/>
      <path id="Path_162" data-name="Path 162" d="M25.325,21.921a2.2,2.2,0,0,1-.42.459l-.722.607a.714.714,0,0,1-.129.107,1.554,1.554,0,0,0-.147.115.974.974,0,0,0-.312.234,1.566,1.566,0,0,0-.159.108.579.579,0,0,1-.166.089.221.221,0,0,1-.086.052,1,1,0,0,1-.485.336.093.093,0,0,1-.061.032c-.021,0-.039.016-.056.05a.765.765,0,0,1-.266.218,3.476,3.476,0,0,0-.3.169.161.161,0,0,1-.1.066.725.725,0,0,0-.115.03l-.073.026a.081.081,0,0,0-.049.039.834.834,0,0,1-.325.2.9.9,0,0,1-.277.159.592.592,0,0,0-.263.2.052.052,0,0,1-.03.031.157.157,0,0,0-.049.038c-.2.1-.413.2-.637.317s-.441.221-.655.324c-.057.033-.109.062-.156.085a1.654,1.654,0,0,1-.164.068.748.748,0,0,1-.179.114,1.771,1.771,0,0,0-.184.1.289.289,0,0,0-.16.077.428.428,0,0,0-.176.061.748.748,0,0,1-.15.073.941.941,0,0,1-.1.053h4.582a2.929,2.929,0,0,0,2.929-2.928V21.394a1.235,1.235,0,0,1-.085.15q-.115.176-.273.376" transform="translate(-9.158 -10.782)" fill="#3da267"/>
      <path id="Path_163" data-name="Path 163" d="M23.664,1.088a.346.346,0,0,1,.054.272,1,1,0,0,1-.131.336l-.138.257a2.941,2.941,0,0,1-.258.329,3.653,3.653,0,0,1-.308.306,11.006,11.006,0,0,1-.888.842l-.945.8L19.433,5.481l-1.034.78c-.143.1-.275.2-.4.294s-.249.195-.389.313l-.177.146a.177.177,0,0,0-.083.175.7.7,0,0,0,0,.176.417.417,0,0,1-.017.184l-.035.2c0,.054.009.1.013.151a.549.549,0,0,1-.038.19.059.059,0,0,0-.005.044.159.159,0,0,1,0,.061,2.3,2.3,0,0,1,0,.363,3.975,3.975,0,0,1-.046.4,1.876,1.876,0,0,0-.045.349c0,.112-.006.237-.013.377-.019.021-.024.04-.01.057a.045.045,0,0,0,.055.011.845.845,0,0,1,.183-.043c.059-.007.128-.018.208-.031a.14.14,0,0,0,.052-.029.141.141,0,0,1,.052-.029,1.245,1.245,0,0,0,.2-.005.815.815,0,0,0,.182-.044.667.667,0,0,0,.216-.034,1.085,1.085,0,0,1,.192-.047,1.792,1.792,0,0,1,.238-.062,1.723,1.723,0,0,0,.237-.062c.078-.013.164-.027.256-.038a2.286,2.286,0,0,1,.264-.02l.317-.07a3.4,3.4,0,0,1,.343-.058.261.261,0,0,1,.173-.04c.264-.038.525-.077.78-.118s.516-.074.785-.1a1.51,1.51,0,0,1,.375,0,2.861,2.861,0,0,0,.381.021,1.517,1.517,0,0,1,.295.011,1.806,1.806,0,0,0,.277.017,2.566,2.566,0,0,1,.507.082c.167.045.343.09.525.137a.611.611,0,0,1,.206.084,2,2,0,0,0,.218.12l.1.079a.266.266,0,0,0,.112.054,1.541,1.541,0,0,1,.285.33V3.477A2.926,2.926,0,0,0,23.538.852a.175.175,0,0,1,.026.042c.028.061.062.125.1.194" transform="translate(-8.644 -0.429)" fill="#3da267"/>
      <path id="Path_164" data-name="Path 164" d="M2.108,6.51c.11-.1.222-.206.336-.315l.311-.3a.615.615,0,0,1,.082-.091c.027-.022.056-.047.089-.072.085-.071.18-.147.284-.225a2.376,2.376,0,0,0,.278-.243Q4.2,4.686,4.829,4.236c.114-.068.227-.139.34-.214s.233-.147.36-.219l.5-.343c.168-.114.35-.226.547-.336s.394-.226.595-.345.418-.239.652-.363c.107-.051.222-.109.344-.173s.244-.124.363-.179a.194.194,0,0,0,.111-.1.158.158,0,0,1,.072-.088.21.21,0,0,1,.2-.133l.106,0a.16.16,0,0,0,.16-.014,1.3,1.3,0,0,1,.132-.037.991.991,0,0,0,.151-.042c.283-.14.571-.274.868-.4s.589-.245.88-.362q.3-.1.568-.188c.181-.057.363-.118.548-.183l.791-.174a.27.27,0,0,0,.158-.024.43.43,0,0,1,.15-.043c.076-.014.152-.028.228-.04H4.7A2.928,2.928,0,0,0,1.767,3.168V6.873c.017-.014.032-.029.049-.042a2.347,2.347,0,0,1,.292-.321" transform="translate(-0.891 -0.121)" fill="#3da267"/>
      <path id="Path_165" data-name="Path 165" d="M29.626.58a.372.372,0,0,0-.14-.106,2.792,2.792,0,0,0-.254-.161" transform="translate(-14.732 -0.158)" fill="#53504f"/>
      <path id="Path_166" data-name="Path 166" d="M33.448,19.278a1.3,1.3,0,0,0-.133-.272V20.19a1.263,1.263,0,0,0,.082-.23,1.814,1.814,0,0,0,.077-.255,1.413,1.413,0,0,0,.028-.218.812.812,0,0,0-.054-.209" transform="translate(-16.79 -9.579)" fill="#53504f"/>
      <path id="Path_167" data-name="Path 167" d="M15.291,20.7s0,0,0,0,0,0,0,0" transform="translate(-7.706 -10.433)" fill="#53504f"/>
      <path id="Path_168" data-name="Path 168" d="M13.2,15.02a.473.473,0,0,1-.01.149.394.394,0,0,0-.01.148l-.059.54a.954.954,0,0,0-.018.245,1.278,1.278,0,0,1-.036.314.447.447,0,0,1,0,.167,1.265,1.265,0,0,0-.029.156c-.008.058-.029.093-.066.106a.276.276,0,0,0-.115.061c-.013.019-.048.031-.1.036q-.19.047-.37.1a2.256,2.256,0,0,1-.359.073c-.119.014-.23.034-.334.055l-.309.068-.408.08a.534.534,0,0,0-.165.005.732.732,0,0,1-.183.012.183.183,0,0,1-.148-.01c-.07,0-.086-.046-.046-.129a.21.21,0,0,1,.076-.14c.042-.036.09-.077.142-.124a2.256,2.256,0,0,1,.364-.5l.427-.441q.22-.2.429-.379t.439-.342c.143-.146.264-.265.363-.355s.22-.195.358-.313a.186.186,0,0,1,.067-.076.334.334,0,0,0,.073-.057c.049-.017.062,0,.038.049a.179.179,0,0,1,.008.05.2.2,0,0,0,.013.068.61.61,0,0,0-.031.384" transform="translate(-5.245 -7.289)" fill="#53504f"/>
      <path id="Path_169" data-name="Path 169" d="M17,4.261a.965.965,0,0,1,.057.281c0,.089.01.187.02.294a3.072,3.072,0,0,1,.061.529,3.308,3.308,0,0,0,.062.529c0,.083,0,.163,0,.24a1.2,1.2,0,0,1-.024.226.319.319,0,0,0,.052.148c.009.024.031.03.068.016a.26.26,0,0,0,.159-.138c.188-.136.382-.273.583-.412A5.172,5.172,0,0,0,18.62,5.5c.077-.055.149-.1.217-.149s.134-.091.2-.143q.177-.145.358-.282l.4-.294a2.354,2.354,0,0,0,.242-.2,1.792,1.792,0,0,1,.279-.212,1.159,1.159,0,0,0,.238-.209.812.812,0,0,1,.264-.2,3.636,3.636,0,0,1,.381-.362c.145-.12.293-.242.443-.364a1.253,1.253,0,0,1,.143-.123.567.567,0,0,0,.138-.141l.3-.315a2.448,2.448,0,0,1,.263-.258,1.244,1.244,0,0,0,.225-.245,1.278,1.278,0,0,0,.229-.413c.007-.058-.01-.087-.051-.086a.216.216,0,0,0-.177-.031.711.711,0,0,1-.2.019,4.2,4.2,0,0,0-.493-.014,3.265,3.265,0,0,0-.529.062l-.124,0a.777.777,0,0,0-.242.022l-.451.075a.973.973,0,0,1-.228.09.987.987,0,0,1-.248.035.217.217,0,0,1-.09.011.164.164,0,0,0-.1.036c-.165.045-.328.091-.49.141a4.736,4.736,0,0,0-.5.185c-.345.121-.687.249-1.028.382s-.679.28-1.01.438c-.049.016-.078.034-.085.05-.065.051-.092.094-.078.131.022.145.037.275.044.39a.814.814,0,0,0,.117.364c0,.029-.009.062-.017.1a.2.2,0,0,0,.008.112.177.177,0,0,1,.007.081A.079.079,0,0,0,17,4.261" transform="translate(-8.473 -0.741)" fill="#d7a000"/>
      <path id="Path_170" data-name="Path 170" d="M13.206,14.519c.024-.05.011-.066-.038-.049a.324.324,0,0,1-.074.057.17.17,0,0,0-.066.075c-.139.118-.258.223-.358.312s-.222.209-.363.356c-.155.111-.3.224-.441.342s-.282.244-.428.378l-.427.441a2.228,2.228,0,0,0-.364.5c-.053.047-.1.088-.144.124a.208.208,0,0,0-.074.14c-.04.083-.026.127.045.129a.182.182,0,0,0,.149.01.723.723,0,0,0,.184-.012.5.5,0,0,1,.164-.006l.408-.081q.153-.031.308-.066c.1-.022.214-.04.334-.055a2.289,2.289,0,0,0,.358-.073c.12-.036.243-.068.371-.1a.144.144,0,0,0,.1-.036.272.272,0,0,1,.114-.062c.036-.012.059-.048.066-.106a1.18,1.18,0,0,1,.028-.156.412.412,0,0,0,0-.167A1.183,1.183,0,0,0,13.1,16.1a1.02,1.02,0,0,1,.018-.245l.06-.54a.4.4,0,0,1,.01-.148.471.471,0,0,0,.01-.149.62.62,0,0,1,.03-.385.228.228,0,0,1-.013-.068.136.136,0,0,0-.007-.049" transform="translate(-5.245 -7.289)" fill="#d7a000"/>
      <path id="Path_171" data-name="Path 171" d="M8.318,13.273c.01.107.016.215.021.325a1.78,1.78,0,0,0,.039.319.331.331,0,0,0-.01.148.12.12,0,0,1-.057.1.1.1,0,0,1-.108.017,1.484,1.484,0,0,1-.239-.03.194.194,0,0,1-.166-.118.846.846,0,0,1-.084-.209,1.845,1.845,0,0,1-.04-.2,2.7,2.7,0,0,1-.048-.492,2.792,2.792,0,0,0-.048-.492l.009-.211.021-.174c0-.083,0-.161-.01-.235a.829.829,0,0,1,.016-.224.216.216,0,0,0,.029-.155,2.081,2.081,0,0,1-.005-.34c.005-.121.01-.236.012-.348a1.667,1.667,0,0,0,.045-.317,2.094,2.094,0,0,1,.032-.292.053.053,0,0,0-.016-.077.049.049,0,0,0-.07,0c-.042,0-.06,0-.054,0s-.006.009-.04.035a1.419,1.419,0,0,1-.611.153,2.447,2.447,0,0,0-.343.058c-.122.029-.234.055-.336.077a.119.119,0,0,1-.071.036.433.433,0,0,0-.1.022l-.482.046a.793.793,0,0,1-.436-.056.47.47,0,0,1-.355-.186.712.712,0,0,1-.115-.178,2,2,0,0,0-.1-.184.353.353,0,0,1,.027-.279c.022-.092.044-.179.063-.262a.578.578,0,0,1,.132-.244l.432-.483a.663.663,0,0,1,.176-.208,1.786,1.786,0,0,1,.452-.429q.542-.522,1.063-.934a3.26,3.26,0,0,1,.436-.382c.149-.108.3-.223.45-.345a.136.136,0,0,0,.08-.069c.077-.056.11-.109.1-.161a.5.5,0,0,1,.019-.214A.489.489,0,0,0,8.013,5.9a.481.481,0,0,1-.021-.18l-.01-.266a.735.735,0,0,0-.026-.428,1.293,1.293,0,0,0,.009-.388c-.016-.125-.03-.242-.04-.35,0-.124-.006-.236-.014-.337a.883.883,0,0,0-.088-.312.365.365,0,0,0,0-.092.3.3,0,0,1,.011-.118,1.887,1.887,0,0,0-.084-.355A.974.974,0,0,1,7.7,2.71c.008-.017,0-.031-.025-.044a.08.08,0,0,0-.056-.011c-.107.051-.2.1-.274.138s-.159.09-.249.149c-.209.115-.407.219-.6.313s-.374.194-.559.3l-.441.28a4.862,4.862,0,0,0-.448.323l-.8.509a.1.1,0,0,0-.034.022.1.1,0,0,1-.034.022,4.062,4.062,0,0,1-.428.347,4.32,4.32,0,0,0-.429.348q-.189.17-.419.344c-.154.117-.305.236-.455.359a2,2,0,0,1-.144.153.932.932,0,0,0-.124.147,2.789,2.789,0,0,1-.3.294,2.781,2.781,0,0,0-.3.293,1.409,1.409,0,0,0-.208.177,1.87,1.87,0,0,0-.176.207.177.177,0,0,0-.01.21l.046.129c-.02.021-.028.038-.023.05a.117.117,0,0,1-.018.069Q1.15,8,1.026,8a1.355,1.355,0,0,1-.447.323q-.278.1-.494-.222A.421.421,0,0,0,.029,8q-.052-.147-.01-.2c.008-.017.011-.028.009-.035s.007-.019.027-.04a4.864,4.864,0,0,1,.4-.546,3.759,3.759,0,0,1,.47-.466,2.379,2.379,0,0,1,.292-.321c.111-.1.222-.206.336-.315l.311-.3a.641.641,0,0,1,.082-.091c.027-.022.056-.047.089-.072.085-.071.181-.147.284-.225A2.339,2.339,0,0,0,2.6,5.147q.711-.582,1.341-1.032c.114-.068.228-.139.341-.214s.232-.147.359-.219l.5-.343c.168-.113.35-.226.547-.336s.394-.226.6-.344.416-.241.65-.364c.107-.052.222-.109.344-.173S7.521,2,7.64,1.942a.194.194,0,0,0,.11-.1.16.16,0,0,1,.072-.088.212.212,0,0,1,.2-.133l.106,0a.16.16,0,0,0,.16-.014,1.188,1.188,0,0,1,.132-.037,1.059,1.059,0,0,0,.152-.043c.283-.14.571-.274.868-.4s.589-.245.881-.362q.294-.1.566-.188T11.439.4L12.23.226A.262.262,0,0,0,12.388.2a.44.44,0,0,1,.151-.043c.168-.031.339-.06.509-.085s.35-.05.536-.074c.116.014.223.026.322.032a2.785,2.785,0,0,1,.305.038.8.8,0,0,1,.29.086,2.67,2.67,0,0,1,.253.16.332.332,0,0,1,.167.149c.028.059.061.124.1.192a.352.352,0,0,1,.055.272,1.034,1.034,0,0,1-.131.337l-.138.256a3.065,3.065,0,0,1-.258.329,3.441,3.441,0,0,1-.309.306A11,11,0,0,1,13.35,3c-.321.272-.635.538-.945.8L10.789,5.053l-1.035.778-.4.294q-.18.137-.389.313l-.177.146a.185.185,0,0,0-.083.175.661.661,0,0,0,0,.177.459.459,0,0,1-.019.183l-.035.2c.005.055.009.1.012.153a.538.538,0,0,1-.038.189.056.056,0,0,0-.006.043.162.162,0,0,1,0,.062,2.413,2.413,0,0,1,0,.362,4.013,4.013,0,0,1-.047.4,1.778,1.778,0,0,0-.044.347c0,.112-.006.239-.013.379-.02.021-.025.039-.011.056a.043.043,0,0,0,.056.011.958.958,0,0,1,.183-.043c.059-.007.129-.017.207-.031a.138.138,0,0,0,.053-.028.122.122,0,0,1,.052-.029,1.125,1.125,0,0,0,.195-.007.8.8,0,0,0,.182-.043A.676.676,0,0,0,9.658,9.1a.97.97,0,0,1,.19-.046A1.668,1.668,0,0,1,10.087,9a1.459,1.459,0,0,0,.238-.062c.078-.013.164-.026.256-.038a2.333,2.333,0,0,1,.264-.02l.317-.07q.164-.036.343-.058a.278.278,0,0,1,.174-.04c.263-.037.523-.077.778-.118s.517-.073.785-.1a1.513,1.513,0,0,1,.375,0A2.785,2.785,0,0,0,14,8.515a1.682,1.682,0,0,1,.294.01,1.875,1.875,0,0,0,.276.018,2.589,2.589,0,0,1,.507.081c.168.045.343.091.526.137a.623.623,0,0,1,.206.084,1.691,1.691,0,0,0,.218.12c.038.029.071.056.1.079a.3.3,0,0,0,.113.055,1.435,1.435,0,0,1,.419.6.816.816,0,0,1,.054.21,1.416,1.416,0,0,1-.028.217,1.833,1.833,0,0,1-.077.255,1.247,1.247,0,0,1-.167.381c-.077.117-.167.243-.273.376a2.229,2.229,0,0,1-.42.459l-.721.607a.777.777,0,0,1-.129.107,1.565,1.565,0,0,0-.146.114.95.95,0,0,0-.313.235,1.492,1.492,0,0,0-.159.108.579.579,0,0,1-.166.089.215.215,0,0,1-.086.051,1.006,1.006,0,0,1-.485.337.087.087,0,0,1-.062.031c-.021,0-.039.017-.055.051a.779.779,0,0,1-.266.217,3.45,3.45,0,0,0-.3.169.163.163,0,0,1-.1.067.642.642,0,0,0-.115.03l-.073.026a.078.078,0,0,0-.049.038.815.815,0,0,1-.325.2.912.912,0,0,1-.276.16.585.585,0,0,0-.264.2.055.055,0,0,1-.03.031.175.175,0,0,0-.049.038c-.2.1-.413.2-.637.317s-.441.221-.655.323c-.057.035-.109.062-.156.087a1.451,1.451,0,0,1-.164.067.722.722,0,0,1-.179.115c-.065.03-.127.062-.184.1a.312.312,0,0,0-.16.077.442.442,0,0,0-.175.063.844.844,0,0,1-.151.073.892.892,0,0,1-.15.073l-.157.056a2,2,0,0,1-.222.108A.544.544,0,0,1,8.343,16a.2.2,0,0,1-.068.013.091.091,0,0,0-.061.032c-.025.05-.047.064-.068.045a1.036,1.036,0,0,0-.234.072,1.784,1.784,0,0,0-.185.1.158.158,0,0,1-.1.013.245.245,0,0,0-.154.033,1.178,1.178,0,0,1-.136.089,7.093,7.093,0,0,1-.711.25,4.008,4.008,0,0,1-.732.132.561.561,0,0,0-.259.029.5.5,0,0,0-.18.021.337.337,0,0,1-.185,0,.784.784,0,0,0-.208-.031.5.5,0,0,1-.19-.037c-.029,0-.044-.015-.044-.037a.043.043,0,0,0-.025-.043.073.073,0,0,1-.039-.111.089.089,0,0,1,.086-.051.452.452,0,0,1,.2-.09c.079.028.13.017.155-.033s.079-.069.166-.058c.136-.006.278-.014.428-.026a1.635,1.635,0,0,0,.426-.088c.029,0,.046,0,.05-.006s.018-.017.042-.026a1.528,1.528,0,0,0,.434-.1q.19-.078.449-.169a2.463,2.463,0,0,0,.757-.327.473.473,0,0,0,.136-.027l.129-.046q.339-.161.661-.305c.216-.1.436-.2.662-.306.081-.042.165-.082.249-.119a1.261,1.261,0,0,0,.242-.137q.394-.179.775-.4l.761-.434c.115-.068.224-.13.329-.188s.214-.121.328-.188a.323.323,0,0,1,.126-.085.457.457,0,0,0,.143-.093l1.2-.775q.318-.216.643-.475c.216-.174.424-.35.623-.531a3.952,3.952,0,0,0,.4-.369,3.492,3.492,0,0,0,.325-.405A2.222,2.222,0,0,0,16,10.3a.834.834,0,0,0,.129-.461.179.179,0,0,0-.064-.123.623.623,0,0,0-.37-.285c-.079-.028-.159-.059-.241-.092s-.161-.065-.24-.093c-.195-.042-.386-.074-.575-.1a3.149,3.149,0,0,0-.568-.019c-.094.006-.193.009-.3.011s-.2.005-.3.011l-.087-.011a2.245,2.245,0,0,0-.61.006l-.6.087a.355.355,0,0,1-.161.016.49.49,0,0,1-.136.027.123.123,0,0,0-.092.032,2.589,2.589,0,0,0-.324.051l-.318.07c-.065.01-.139.017-.219.025a.578.578,0,0,0-.225.069l-.056.019a1.788,1.788,0,0,0-.491.079,3.79,3.79,0,0,1-.479.116l-.235.042a.159.159,0,0,0-.1.023.712.712,0,0,1-.089.042,1.816,1.816,0,0,0-.34.067c-.119.035-.236.065-.352.092a.242.242,0,0,0-.083.06.322.322,0,0,0-.058.072.061.061,0,0,0-.017.068,1.51,1.51,0,0,1,0,.354c-.014.116-.027.237-.038.366l-.051.621q0,.167-.013.347a1.619,1.619,0,0,1-.045.317.907.907,0,0,0,.024.3A2.353,2.353,0,0,1,8.3,12.9a2.387,2.387,0,0,0,.014.369M6.133,9.949l.309-.067a3.353,3.353,0,0,1,.334-.055,2.164,2.164,0,0,0,.359-.074c.119-.035.243-.068.37-.1a.147.147,0,0,0,.1-.036.257.257,0,0,1,.114-.06.115.115,0,0,0,.065-.107A1.234,1.234,0,0,1,7.814,9.3a.465.465,0,0,0,0-.168,1.284,1.284,0,0,0,.036-.313,1.019,1.019,0,0,1,.017-.245l.059-.54a.459.459,0,0,1,.01-.149.417.417,0,0,0,.01-.149.617.617,0,0,1,.031-.384.2.2,0,0,1-.013-.068.154.154,0,0,0-.007-.05c.023-.049.011-.066-.038-.049a.39.39,0,0,1-.073.058.177.177,0,0,0-.068.074q-.208.177-.358.313c-.1.09-.221.209-.363.357-.155.109-.3.224-.44.341s-.282.245-.428.379l-.428.44a2.208,2.208,0,0,0-.363.5l-.144.123a.211.211,0,0,0-.075.14c-.04.083-.025.127.046.13a.2.2,0,0,0,.149.01.742.742,0,0,0,.183-.012.472.472,0,0,1,.164-.005ZM12.2.9a1,1,0,0,1-.228.09,1,1,0,0,1-.248.036.243.243,0,0,1-.089.01.161.161,0,0,0-.1.036c-.164.045-.327.091-.49.141a4.574,4.574,0,0,0-.5.185q-.518.182-1.029.382T8.506,2.22a.158.158,0,0,0-.087.051c-.064.05-.091.094-.078.131a3.627,3.627,0,0,1,.044.39.816.816,0,0,0,.117.363.932.932,0,0,1-.016.1.207.207,0,0,0,.008.111.186.186,0,0,1,.007.081.082.082,0,0,0,.026.074.965.965,0,0,1,.058.28c0,.089.01.187.02.3a3.264,3.264,0,0,1,.061.528,3.041,3.041,0,0,0,.062.529c0,.083,0,.163,0,.24a1.281,1.281,0,0,1-.023.226.311.311,0,0,0,.051.148c.009.024.031.03.069.018a.266.266,0,0,0,.158-.139c.188-.134.382-.273.582-.412a4.99,4.99,0,0,0,.581-.475c.077-.055.15-.1.217-.149s.135-.091.2-.142c.118-.1.237-.19.359-.282l.394-.294a2.253,2.253,0,0,0,.242-.2,1.833,1.833,0,0,1,.278-.211,1.16,1.16,0,0,0,.239-.208.8.8,0,0,1,.264-.2,3.735,3.735,0,0,1,.381-.362q.217-.181.444-.365a1.034,1.034,0,0,1,.143-.122.589.589,0,0,0,.137-.142l.306-.315a2.45,2.45,0,0,1,.261-.258,1.266,1.266,0,0,0,.226-.245,1.265,1.265,0,0,0,.228-.413c.008-.058-.01-.086-.051-.086a.216.216,0,0,0-.177-.031.7.7,0,0,1-.2.019,4.119,4.119,0,0,0-.494-.015A3.335,3.335,0,0,0,13.014.8L12.89.8a.793.793,0,0,0-.242.022Z" transform="translate(0 0)" fill="#fff"/>
      <path id="Path_172" data-name="Path 172" d="M64.287,23.531v.6c0,.738-.354,1.138-1.078,1.138h-.342V27h-.724v-4.6h1.065c.724,0,1.078.4,1.078,1.137m-1.42-.48V24.61h.342c.231,0,.355-.106.355-.434v-.69c0-.329-.124-.435-.355-.435Z" transform="translate(-31.32 -11.286)" fill="#282523"/>
      <path id="Path_173" data-name="Path 173" d="M79.26,27a1.4,1.4,0,0,1-.066-.566v-.723c0-.428-.145-.586-.474-.586h-.249V27h-.724v-4.6h1.092c.749,0,1.071.348,1.071,1.058v.362a.909.909,0,0,1-.473.928v.012c.362.151.48.494.48.973v.711A1.353,1.353,0,0,0,80,27Zm-.79-3.946v1.414h.283c.27,0,.435-.119.435-.487v-.454c0-.328-.113-.473-.369-.473Z" transform="translate(-39.183 -11.286)" fill="#282523"/>
      <path id="Path_174" data-name="Path 174" d="M94.406,24.334H95.4v.657h-.994V26.34h1.249V27H93.683v-4.6h1.973v.657H94.406Z" transform="translate(-47.215 -11.286)" fill="#282523"/>
      <path id="Path_175" data-name="Path 175" d="M110.028,22.287c.7,0,1.066.421,1.066,1.157v.145h-.685V23.4c0-.329-.131-.453-.361-.453s-.362.125-.362.453.145.586.618,1a1.785,1.785,0,0,1,.8,1.44c0,.736-.369,1.157-1.079,1.157s-1.078-.421-1.078-1.157v-.283h.684v.328c0,.328.145.448.374.448s.375-.12.375-.448-.145-.585-.618-1a1.788,1.788,0,0,1-.8-1.441c0-.736.362-1.157,1.066-1.157" transform="translate(-54.906 -11.232)" fill="#282523"/>
      <path id="Path_176" data-name="Path 176" d="M125.592,22.287c.7,0,1.066.421,1.066,1.157v.145h-.685V23.4c0-.329-.131-.453-.361-.453s-.362.125-.362.453.145.586.618,1a1.785,1.785,0,0,1,.8,1.44c0,.736-.369,1.157-1.079,1.157s-1.078-.421-1.078-1.157v-.283h.684v.328c0,.328.145.448.374.448s.375-.12.375-.448-.145-.585-.618-1a1.788,1.788,0,0,1-.8-1.441c0-.736.362-1.157,1.066-1.157" transform="translate(-62.75 -11.232)" fill="#282523"/>
      <rect id="Rectangle_67" data-name="Rectangle 67" width="8.861" height="0.399" transform="translate(19.048 12.499)" fill="#161615"/>
      <rect id="Rectangle_68" data-name="Rectangle 68" width="8.861" height="0.399" transform="translate(19.048 13.457)" fill="#161615"/>
      <rect id="Rectangle_69" data-name="Rectangle 69" width="8.861" height="0.399" transform="translate(66.23 12.499)" fill="#161615"/>
      <rect id="Rectangle_70" data-name="Rectangle 70" width="8.861" height="0.399" transform="translate(66.23 13.457)" fill="#161615"/>
    </g>
  </g>
</svg>
