<svg xmlns="http://www.w3.org/2000/svg" xmlns:xlink="http://www.w3.org/1999/xlink" width="59.964" height="21.655" viewBox="0 0 59.964 21.655">
  <defs>
    <clipPath id="clip-path">
      <rect id="Rectangle_57" data-name="Rectangle 57" width="59.964" height="21.655" fill="none"/>
    </clipPath>
  </defs>
  <g id="Group_62" data-name="Group 62" transform="translate(0 0)">
    <g id="Group_61" data-name="Group 61" transform="translate(0 0)" clip-path="url(#clip-path)">
      <path id="Path_78" data-name="Path 78" d="M26.066,4.42A1.859,1.859,0,0,1,24.219,2.4,1.861,1.861,0,0,1,26.066.379a1.723,1.723,0,0,1,.987.287V.217A2.237,2.237,0,0,0,26.066,0,2.271,2.271,0,0,0,23.8,2.4a2.258,2.258,0,0,0,2.265,2.4,2.211,2.211,0,0,0,.987-.223V4.129a1.728,1.728,0,0,1-.987.29" transform="translate(-14.527 0)" fill="#161615"/>
      <path id="Path_79" data-name="Path 79" d="M41.881,3.417H39.668L39.1,4.847h-.444L40.53.218h.5L42.9,4.847h-.444Zm-2.062-.379h1.913L40.772.629Z" transform="translate(-23.595 -0.133)" fill="#161615"/>
      <path id="Path_80" data-name="Path 80" d="M55.823.6v4.25H55.4V.6H53.773V.217h3.689V.6Z" transform="translate(-32.821 -0.133)" fill="#161615"/>
      <path id="Path_81" data-name="Path 81" d="M71.492,3.417H69.279l-.568,1.43h-.444L70.141.218h.5L72.51,4.847h-.444Zm-2.063-.379h1.913L70.382.629Z" transform="translate(-41.667 -0.133)" fill="#161615"/>
      <path id="Path_82" data-name="Path 82" d="M85.736,4.846V.218h.418v4.25h2.337v.379Z" transform="translate(-52.33 -0.133)" fill="#161615"/>
      <path id="Path_83" data-name="Path 83" d="M97.309.218H97.8l1.332,2.265L100.469.218h.483L99.333,2.869V4.846h-.4V2.869Z" transform="translate(-59.394 -0.133)" fill="#161615"/>
      <path id="Path_84" data-name="Path 84" d="M114.721,1.266a1.07,1.07,0,0,0-1.129-.9.987.987,0,0,0-1.058.914.823.823,0,0,0,.731.816l.7.163c.718.169,1.162.588,1.162,1.24A1.383,1.383,0,0,1,113.6,4.8a1.56,1.56,0,0,1-1.658-1.377l.385-.124A1.222,1.222,0,0,0,113.6,4.426c.711,0,1.123-.392,1.123-.894,0-.431-.3-.744-.829-.868l-.7-.163a1.215,1.215,0,0,1-1.071-1.195A1.415,1.415,0,0,1,113.578,0a1.4,1.4,0,0,1,1.508,1.136Z" transform="translate(-68.324 0)" fill="#161615"/>
      <path id="Path_85" data-name="Path 85" d="M127.748.6v4.25h-.418V.6H125.7V.217h3.688V.6Z" transform="translate(-76.721 -0.133)" fill="#161615"/>
      <rect id="Rectangle_56" data-name="Rectangle 56" width="57.098" height="0.39" transform="translate(1.359 7.715)" fill="#161615"/>
      <path id="Path_86" data-name="Path 86" d="M1.048,29.282H0v3.174H.287V31.113h.761a.917.917,0,1,0,0-1.831M1,30.858H.287V29.537H1a.664.664,0,1,1,0,1.321" transform="translate(0 -17.873)" fill="#161615"/>
      <path id="Path_87" data-name="Path 87" d="M13.711,32.457h1.871V32.2H14V31h1.446v-.26H14v-1.2h1.585v-.259H13.711Z" transform="translate(-8.369 -17.873)" fill="#161615"/>
      <path id="Path_88" data-name="Path 88" d="M29.358,30.186a.891.891,0,0,0-.944-.9H27.308v3.174h.286V31.082h.662l.766,1.375h.331l-.788-1.393a.862.862,0,0,0,.793-.877m-.989.64h-.775V29.537h.775a.647.647,0,1,1,0,1.289" transform="translate(-16.668 -17.873)" fill="#161615"/>
      <path id="Path_89" data-name="Path 89" d="M43.083,30.773H41.628V29.542h1.594v-.26h-1.88v3.174h.286V31.033h1.455Z" transform="translate(-25.233 -17.873)" fill="#161615"/>
      <path id="Path_90" data-name="Path 90" d="M57.328,30.78a1.554,1.554,0,1,0-1.553,1.643,1.558,1.558,0,0,0,1.553-1.643m-2.816,0a1.27,1.27,0,1,1,1.262,1.384,1.273,1.273,0,0,1-1.262-1.384" transform="translate(-33.097 -17.781)" fill="#161615"/>
      <path id="Path_91" data-name="Path 91" d="M72.649,32.456h.331l-.788-1.392a.862.862,0,0,0,.793-.877.89.89,0,0,0-.944-.9H70.935v3.174h.286V31.082h.662Zm-1.428-2.919H72a.647.647,0,1,1,0,1.289h-.775Z" transform="translate(-43.296 -17.873)" fill="#161615"/>
      <path id="Path_92" data-name="Path 92" d="M86.763,32.457l1.245-2.749v2.749h.286V29.283h-.4l-1.263,2.8-1.262-2.8h-.4v3.174h.286V29.708l1.24,2.749Z" transform="translate(-51.861 -17.873)" fill="#161615"/>
      <path id="Path_93" data-name="Path 93" d="M104.512,32.456h.3l-1.285-3.174h-.341l-1.285,3.174h.3l.39-.981h1.518Zm-1.809-1.24.654-1.652.658,1.652Z" transform="translate(-62.199 -17.873)" fill="#161615"/>
      <path id="Path_94" data-name="Path 94" d="M120,31.991l-1.831-2.708h-.394v3.174h.286v-2.82l1.921,2.82h.3V29.282H120Z" transform="translate(-71.886 -17.873)" fill="#161615"/>
      <path id="Path_95" data-name="Path 95" d="M134.522,32.164a1.391,1.391,0,0,1,0-2.771,1.177,1.177,0,0,1,.694.207v-.312a1.533,1.533,0,0,0-.694-.155,1.648,1.648,0,0,0,0,3.291,1.512,1.512,0,0,0,.694-.16v-.309a1.184,1.184,0,0,1-.694.21" transform="translate(-81.159 -17.782)" fill="#161615"/>
      <path id="Path_96" data-name="Path 96" d="M150.963,29.542v-.26h-1.871v3.174h1.871V32.2h-1.585V31h1.446v-.259h-1.446v-1.2Z" transform="translate(-91 -17.873)" fill="#161615"/>
      <path id="Path_97" data-name="Path 97" d="M59.346,47.133A1.648,1.648,0,1,0,60.9,48.78a1.554,1.554,0,0,0-1.554-1.647m0,3.031a1.391,1.391,0,1,1,1.267-1.384,1.272,1.272,0,0,1-1.267,1.384" transform="translate(-35.277 -28.768)" fill="#161615"/>
      <path id="Path_98" data-name="Path 98" d="M74.585,47.282,73.3,50.456h.3l.39-.981h1.518l.394.981h.3l-1.285-3.174ZM74.1,49.216l.654-1.652.658,1.652Z" transform="translate(-44.739 -28.859)" fill="#161615"/>
      <path id="Path_99" data-name="Path 99" d="M89.874,50.164a1.391,1.391,0,0,1,0-2.771,1.074,1.074,0,0,1,1.11.842l.255-.09a1.324,1.324,0,0,0-1.365-1.012,1.648,1.648,0,0,0,0,3.291A1.36,1.36,0,0,0,91.253,49.4l-.246-.09a1.118,1.118,0,0,1-1.133.855" transform="translate(-53.908 -28.768)" fill="#161615"/>
      <path id="Path_100" data-name="Path 100" d="M106.548,48.715H104.73V47.282h-.286v3.174h.286V48.975h1.818v1.482h.286V47.282h-.286Z" transform="translate(-63.748 -28.859)" fill="#161615"/>
      <path id="Path_101" data-name="Path 101" d="M43.745,50.093a1.391,1.391,0,0,1,0-2.771,1.177,1.177,0,0,1,.694.207v-.312a1.533,1.533,0,0,0-.694-.155,1.648,1.648,0,0,0,0,3.291,1.512,1.512,0,0,0,.694-.16v-.309a1.185,1.185,0,0,1-.694.21" transform="translate(-25.752 -28.725)" fill="#161615"/>
    </g>
  </g>
</svg>
