<svg xmlns="http://www.w3.org/2000/svg" xmlns:xlink="http://www.w3.org/1999/xlink" width="69.407" height="32.676" viewBox="0 0 69.407 32.676">
  <defs>
    <clipPath id="clip-path">
      <rect id="Rectangle_58" data-name="Rectangle 58" width="69.407" height="32.676" fill="none"/>
    </clipPath>
  </defs>
  <g id="Group_64" data-name="Group 64" transform="translate(0 0)">
    <g id="Group_63" data-name="Group 63" transform="translate(0 0)" clip-path="url(#clip-path)">
      <path id="Path_102" data-name="Path 102" d="M57.628,31.984a.671.671,0,0,1,.759-.76h2.749a6.347,6.347,0,0,1,2.106.332,4.435,4.435,0,0,1,1.609.96,4.212,4.212,0,0,1,1.022,1.547,6.214,6.214,0,0,1,0,4.164,4.26,4.26,0,0,1-1.022,1.561,4.451,4.451,0,0,1-1.609.974,6.215,6.215,0,0,1-2.106.338H58.387a.671.671,0,0,1-.759-.76Zm3.411,7.044a2.639,2.639,0,0,0,1.975-.732,2.955,2.955,0,0,0,.718-2.155A2.85,2.85,0,0,0,63,34.007a2.7,2.7,0,0,0-1.961-.711h-.994v5.732Z" transform="translate(-32.75 -17.745)" fill="#11437a"/>
      <path id="Path_103" data-name="Path 103" d="M79,40.983a3.625,3.625,0,0,1,.318-1.533,3.573,3.573,0,0,1,.863-1.181,3.9,3.9,0,0,1,1.277-.76,4.493,4.493,0,0,1,1.561-.269,4.591,4.591,0,0,1,1.581.269,3.9,3.9,0,0,1,1.285.76,3.591,3.591,0,0,1,.863,1.181,3.631,3.631,0,0,1,.317,1.533,3.55,3.55,0,0,1-.317,1.512,3.608,3.608,0,0,1-.863,1.174,3.821,3.821,0,0,1-1.277.753,4.855,4.855,0,0,1-3.149,0,3.808,3.808,0,0,1-1.277-.753,3.59,3.59,0,0,1-.863-1.174A3.543,3.543,0,0,1,79,40.983m2.417,0a1.837,1.837,0,0,0,.131.713,1.61,1.61,0,0,0,.352.534,1.527,1.527,0,0,0,.511.336,1.721,1.721,0,0,0,1.243,0,1.54,1.54,0,0,0,.511-.336,1.63,1.63,0,0,0,.352-.534,1.845,1.845,0,0,0,.131-.713,1.9,1.9,0,0,0-.131-.719,1.692,1.692,0,0,0-.352-.548,1.584,1.584,0,0,0-2.265,0,1.671,1.671,0,0,0-.352.548,1.889,1.889,0,0,0-.131.719" transform="translate(-44.895 -21.163)" fill="#11437a"/>
      <path id="Path_104" data-name="Path 104" d="M99.091,40.954a3.774,3.774,0,0,1,.262-1.388,3.535,3.535,0,0,1,.767-1.188,3.72,3.72,0,0,1,1.243-.828,4.33,4.33,0,0,1,1.692-.311,4.144,4.144,0,0,1,1.381.2,4.038,4.038,0,0,1,.912.438.667.667,0,0,1,.325.466.877.877,0,0,1-.159.577l-.234.361a.648.648,0,0,1-.442.352,1.016,1.016,0,0,1-.58-.131,2.406,2.406,0,0,0-.469-.186,2.087,2.087,0,0,0-.58-.076,1.8,1.8,0,0,0-.746.144,1.559,1.559,0,0,0-.85.925,1.87,1.87,0,0,0,.007,1.247,1.656,1.656,0,0,0,.332.562,1.709,1.709,0,0,0,.553.4,1.813,1.813,0,0,0,.787.158,1.96,1.96,0,0,0,.691-.124,3.939,3.939,0,0,0,.594-.277.873.873,0,0,1,.6-.138.684.684,0,0,1,.435.4l.18.347a1,1,0,0,1,.111.584.7.7,0,0,1-.317.458,5.389,5.389,0,0,1-1.008.5,4.151,4.151,0,0,1-1.52.25,4.428,4.428,0,0,1-1.692-.3,3.642,3.642,0,0,1-1.243-.822,3.513,3.513,0,0,1-.767-1.195,3.862,3.862,0,0,1-.262-1.409" transform="translate(-56.313 -21.163)" fill="#11437a"/>
      <path id="Path_105" data-name="Path 105" d="M116.808,37.085H116.6a.665.665,0,0,1-.746-.76v-.345a.671.671,0,0,1,.76-.759h.262V33.936a.672.672,0,0,1,.76-.76h.8a.672.672,0,0,1,.76.76V35.22h.732a.671.671,0,0,1,.759.759v.345a.665.665,0,0,1-.746.76H119.2v2.155a.783.783,0,0,0,.256.656,1.156,1.156,0,0,0,.573.242,1.123,1.123,0,0,1,.587.207.715.715,0,0,1,.173.553v.622a.661.661,0,0,1-.249.594,1.322,1.322,0,0,1-.732.166,4.358,4.358,0,0,1-.912-.111,3.1,3.1,0,0,1-.981-.4,2.454,2.454,0,0,1-.787-.794,2.383,2.383,0,0,1-.318-1.291Z" transform="translate(-65.84 -18.854)" fill="#11437a"/>
      <path id="Path_106" data-name="Path 106" d="M128.557,40.983a3.625,3.625,0,0,1,.318-1.533,3.572,3.572,0,0,1,.863-1.181,3.9,3.9,0,0,1,1.277-.76,4.5,4.5,0,0,1,1.561-.269,4.591,4.591,0,0,1,1.581.269,3.894,3.894,0,0,1,1.285.76,3.591,3.591,0,0,1,.863,1.181,3.631,3.631,0,0,1,.317,1.533,3.55,3.55,0,0,1-.317,1.512,3.608,3.608,0,0,1-.863,1.174,3.817,3.817,0,0,1-1.277.753,4.855,4.855,0,0,1-3.149,0,3.808,3.808,0,0,1-1.277-.753,3.589,3.589,0,0,1-.863-1.174,3.544,3.544,0,0,1-.318-1.512m2.417,0a1.837,1.837,0,0,0,.131.713,1.617,1.617,0,0,0,.352.534,1.532,1.532,0,0,0,.511.336,1.721,1.721,0,0,0,1.243,0,1.534,1.534,0,0,0,.511-.336,1.618,1.618,0,0,0,.353-.534,1.845,1.845,0,0,0,.131-.713,1.9,1.9,0,0,0-.131-.719,1.679,1.679,0,0,0-.353-.548,1.583,1.583,0,0,0-2.265,0,1.678,1.678,0,0,0-.352.548,1.889,1.889,0,0,0-.131.719" transform="translate(-73.058 -21.163)" fill="#11437a"/>
      <path id="Path_107" data-name="Path 107" d="M149.577,38.292a.672.672,0,0,1,.76-.76h.773a.672.672,0,0,1,.76.76v.442c0,.064,0,.12-.007.166a1.343,1.343,0,0,0-.007.138.715.715,0,0,0-.013.138h.028a2.633,2.633,0,0,1,.262-.58,2.755,2.755,0,0,1,.428-.553,2.361,2.361,0,0,1,.56-.414,1.348,1.348,0,0,1,.642-.166.592.592,0,0,1,.5.193.932.932,0,0,1,.145.566V39a.671.671,0,0,1-.759.76,1.5,1.5,0,0,0-1.271.635,2.1,2.1,0,0,0-.311.677,3.134,3.134,0,0,0-.1.815v2a.672.672,0,0,1-.76.76h-.87a.672.672,0,0,1-.76-.76Z" transform="translate(-85.004 -21.29)" fill="#11437a"/>
      <path id="Path_108" data-name="Path 108" d="M61.01,68.439a1.944,1.944,0,0,1,.171-.823,1.918,1.918,0,0,1,.464-.635,2.106,2.106,0,0,1,.686-.408,2.413,2.413,0,0,1,.838-.145,2.466,2.466,0,0,1,.85.145,2.1,2.1,0,0,1,.69.408,1.918,1.918,0,0,1,.464.635,1.951,1.951,0,0,1,.171.823,1.907,1.907,0,0,1-.171.812,1.929,1.929,0,0,1-.464.631,2.05,2.05,0,0,1-.686.4,2.612,2.612,0,0,1-1.692,0,2.046,2.046,0,0,1-.686-.4,1.929,1.929,0,0,1-.464-.631,1.9,1.9,0,0,1-.171-.812m1.3,0a.988.988,0,0,0,.07.383.875.875,0,0,0,.189.287.823.823,0,0,0,.275.18.928.928,0,0,0,.668,0,.821.821,0,0,0,.274-.18.87.87,0,0,0,.19-.287.988.988,0,0,0,.07-.383,1.015,1.015,0,0,0-.07-.386.9.9,0,0,0-.19-.294.852.852,0,0,0-1.217,0,.909.909,0,0,0-.189.294,1.015,1.015,0,0,0-.07.386" transform="translate(-34.672 -37.751)" fill="#11437a"/>
      <path id="Path_109" data-name="Path 109" d="M72.747,66.926a.361.361,0,0,1,.408-.408h.416a.357.357,0,0,1,.4.408v.067a.117.117,0,0,1,0,.03.117.117,0,0,0,0,.029v.037h.015a1.6,1.6,0,0,1,.171-.23,1.125,1.125,0,0,1,.253-.212,1.527,1.527,0,0,1,.345-.155,1.463,1.463,0,0,1,.449-.063,1.922,1.922,0,0,1,.542.074,1.086,1.086,0,0,1,.434.241,1.168,1.168,0,0,1,.289.442,1.856,1.856,0,0,1,.108.675v2.07a.361.361,0,0,1-.408.408h-.467a.36.36,0,0,1-.408-.408V68.1a.581.581,0,0,0-.1-.386.4.4,0,0,0-.319-.119.789.789,0,0,0-.371.082.751.751,0,0,0-.26.222.938.938,0,0,0-.152.326,1.52,1.52,0,0,0-.048.386v1.321a.361.361,0,0,1-.408.408h-.468a.361.361,0,0,1-.408-.408Z" transform="translate(-41.342 -37.751)" fill="#11437a"/>
      <path id="Path_110" data-name="Path 110" d="M88.729,63.606a.361.361,0,0,1,.408-.408h1.476a3.4,3.4,0,0,1,1.132.178,2.387,2.387,0,0,1,.864.515,2.263,2.263,0,0,1,.549.831,3.344,3.344,0,0,1,0,2.237,2.289,2.289,0,0,1-.549.838,2.4,2.4,0,0,1-.864.523,3.338,3.338,0,0,1-1.132.182H89.137a.361.361,0,0,1-.408-.408Zm1.833,3.784A1.42,1.42,0,0,0,91.623,67a1.589,1.589,0,0,0,.386-1.157,1.53,1.53,0,0,0-.393-1.146,1.447,1.447,0,0,0-1.053-.382h-.534V67.39Z" transform="translate(-50.424 -35.915)" fill="#11437a"/>
      <path id="Path_111" data-name="Path 111" d="M100.656,68.425a2.21,2.21,0,0,1,.137-.787,1.8,1.8,0,0,1,1.02-1.053,2.125,2.125,0,0,1,.831-.156,1.9,1.9,0,0,1,.753.141,1.575,1.575,0,0,1,.9.964,2.189,2.189,0,0,1,.115.72.431.431,0,0,1-.119.285.391.391,0,0,1-.312.137h-2.01a.766.766,0,0,0,.326.514,1.025,1.025,0,0,0,.564.161,1.323,1.323,0,0,0,.371-.052,1.974,1.974,0,0,0,.326-.126.525.525,0,0,1,.319-.052.37.37,0,0,1,.23.208l.1.194a.478.478,0,0,1,.059.317.369.369,0,0,1-.2.243,3.054,3.054,0,0,1-.538.232,2.426,2.426,0,0,1-.775.112,2.259,2.259,0,0,1-.905-.171,1.974,1.974,0,0,1-.657-.449,1.9,1.9,0,0,1-.4-.642,2.083,2.083,0,0,1-.137-.742m2.485-.482a.6.6,0,0,0-.141-.4.479.479,0,0,0-.386-.167.517.517,0,0,0-.423.171.943.943,0,0,0-.193.4Z" transform="translate(-57.202 -37.751)" fill="#11437a"/>
      <path id="Path_112" data-name="Path 112" d="M111.018,66.926a.361.361,0,0,1,.408-.408h.416a.358.358,0,0,1,.4.408v.067a.117.117,0,0,1,0,.03.116.116,0,0,0,0,.029v.037h.015a2.7,2.7,0,0,1,.167-.215,1.2,1.2,0,0,1,.241-.215,1.444,1.444,0,0,1,.322-.163,1.165,1.165,0,0,1,.4-.066,1.269,1.269,0,0,1,.642.159,1.035,1.035,0,0,1,.427.486h.015a1.224,1.224,0,0,1,.2-.234,1.623,1.623,0,0,1,.278-.208,1.5,1.5,0,0,1,.345-.149,1.439,1.439,0,0,1,.4-.055,1.556,1.556,0,0,1,.486.074.966.966,0,0,1,.393.245,1.2,1.2,0,0,1,.264.446,2.034,2.034,0,0,1,.1.667v2.07a.361.361,0,0,1-.408.408h-.468a.361.361,0,0,1-.408-.408V68.076a.919.919,0,0,0-.056-.349.232.232,0,0,0-.241-.133.606.606,0,0,0-.349.1.716.716,0,0,0-.226.252,1.2,1.2,0,0,0-.123.36,2.348,2.348,0,0,0-.037.419v1.209a.36.36,0,0,1-.408.408h-.468a.361.361,0,0,1-.408-.408V68.076a.919.919,0,0,0-.056-.349.232.232,0,0,0-.241-.133.6.6,0,0,0-.363.1.744.744,0,0,0-.223.263,1.236,1.236,0,0,0-.115.36,2.411,2.411,0,0,0-.033.4v1.209a.361.361,0,0,1-.408.408h-.468a.361.361,0,0,1-.408-.408Z" transform="translate(-63.091 -37.751)" fill="#11437a"/>
      <path id="Path_113" data-name="Path 113" d="M126.194,69.263a.981.981,0,0,1,.2-.638,1.441,1.441,0,0,1,.523-.4,2.589,2.589,0,0,1,.7-.208,4.728,4.728,0,0,1,.735-.06h.111V67.89a.348.348,0,0,0-.163-.33.753.753,0,0,0-.378-.092,1.288,1.288,0,0,0-.363.052,2.48,2.48,0,0,0-.327.119.374.374,0,0,1-.549-.178l-.089-.186a.456.456,0,0,1-.044-.316.374.374,0,0,1,.208-.234,3.6,3.6,0,0,1,.542-.2,2.615,2.615,0,0,1,.742-.1,1.8,1.8,0,0,1,1.25.411,1.467,1.467,0,0,1,.456,1.147v1.944a.361.361,0,0,1-.408.408h-.357a.364.364,0,0,1-.408-.416v-.082a.03.03,0,0,1,.008-.022h-.015a1.328,1.328,0,0,1-.275.3,1.42,1.42,0,0,1-.356.212,1.248,1.248,0,0,1-.5.093,1.393,1.393,0,0,1-.5-.089,1.188,1.188,0,0,1-.393-.245,1.111,1.111,0,0,1-.256-.371,1.15,1.15,0,0,1-.092-.46m1.268-.119a.319.319,0,0,0,.093.23.357.357,0,0,0,.271.1.546.546,0,0,0,.259-.063.772.772,0,0,0,.208-.16.7.7,0,0,0,.137-.215.631.631,0,0,0,.048-.237v-.1h-.119a2.252,2.252,0,0,0-.308.022,1.259,1.259,0,0,0-.29.074.631.631,0,0,0-.215.137.3.3,0,0,0-.085.219" transform="translate(-71.715 -37.751)" fill="#11437a"/>
      <path id="Path_114" data-name="Path 114" d="M136.487,66.926a.361.361,0,0,1,.408-.408h.416a.357.357,0,0,1,.4.408v.067a.117.117,0,0,1,0,.03.115.115,0,0,0,0,.029v.037h.015a1.6,1.6,0,0,1,.17-.23,1.144,1.144,0,0,1,.253-.212,1.523,1.523,0,0,1,.345-.155,1.462,1.462,0,0,1,.449-.063,1.921,1.921,0,0,1,.541.074,1.091,1.091,0,0,1,.434.241,1.168,1.168,0,0,1,.289.442,1.857,1.857,0,0,1,.107.675v2.07a.361.361,0,0,1-.408.408h-.467a.36.36,0,0,1-.408-.408V68.1a.581.581,0,0,0-.1-.386.4.4,0,0,0-.319-.119.788.788,0,0,0-.371.082.754.754,0,0,0-.259.222.939.939,0,0,0-.152.326,1.539,1.539,0,0,0-.048.386v1.321a.361.361,0,0,1-.408.408h-.468a.361.361,0,0,1-.408-.408Z" transform="translate(-77.565 -37.751)" fill="#11437a"/>
      <path id="Path_115" data-name="Path 115" d="M146.953,66.589a2.443,2.443,0,0,1,.13-.82,1.912,1.912,0,0,1,.36-.631,1.544,1.544,0,0,1,.553-.4,1.729,1.729,0,0,1,.7-.141,1.621,1.621,0,0,1,.478.06,1.372,1.372,0,0,1,.308.133.8.8,0,0,1,.215.186h.015a.171.171,0,0,1-.007-.052V63.606a.361.361,0,0,1,.408-.408h.468a.361.361,0,0,1,.408.408v4.488a.361.361,0,0,1-.408.408H150.2q-.408,0-.408-.371v-.074a.052.052,0,0,1,.007-.022h-.015a1.269,1.269,0,0,1-.26.282,1.455,1.455,0,0,1-.341.19,1.337,1.337,0,0,1-.5.085,1.679,1.679,0,0,1-.709-.145,1.553,1.553,0,0,1-.541-.412,1.883,1.883,0,0,1-.349-.634,2.547,2.547,0,0,1-.123-.812m1.291,0a1.066,1.066,0,0,0,.208.689.664.664,0,0,0,.542.257.738.738,0,0,0,.278-.056.649.649,0,0,0,.241-.171.854.854,0,0,0,.167-.294,1.286,1.286,0,0,0,.063-.425,1.269,1.269,0,0,0-.044-.335.89.89,0,0,0-.141-.294.728.728,0,0,0-.237-.208.657.657,0,0,0-.326-.079.7.7,0,0,0-.527.234.954.954,0,0,0-.223.682" transform="translate(-83.512 -35.915)" fill="#11437a"/>
      <path id="Path_116" data-name="Path 116" d="M21.172,35.525a8.247,8.247,0,0,1-2.045,5.806,7.492,7.492,0,0,0-1.321,2.254c-.81,1.96-.794,4.757,1.415,5.685a3.8,3.8,0,0,0,3.227.006c1.6-.727,2.569-2.37,3.316-3.926l1.369-2.526,1.378-2.54a3.713,3.713,0,0,1,1.147-1.27,1.124,1.124,0,0,1,1.743.471,5.241,5.241,0,0,1,.265,1.976l.04,1.433c.057,1.821.174,6.717.218,8.6l-.038-.162a1.679,1.679,0,0,0,.232.367.336.336,0,0,0,.076.069.182.182,0,0,0-.126.01,2.247,2.247,0,0,0,.274-.731l-.007.038c.08-.565.448-3.226.518-3.726.281-2.381,3.256-1.9,4.934-1.939l3.018.014,36.209.165v.488l-39.227.179a21.147,21.147,0,0,0-2.915.1c-.549.126-1.032.392-1.132.907-.016.127-.111.8-.129.936l-.413,3a3.254,3.254,0,0,1-.347.973c-.582.921-1.449.287-1.764-.489l-.034-.071,0-.092c-.149-2.641-.4-7.4-.525-9.994a4.639,4.639,0,0,0-.223-1.6.208.208,0,0,0,.12.037,2.289,2.289,0,0,0-.83.923c-.648,1.262-1.953,3.8-2.6,5.061-.859,1.845-2,3.709-3.962,4.6a5.183,5.183,0,0,1-4.757-.226c-2.583-1.395-2.69-4.812-1.688-7.208a8.778,8.778,0,0,1,1.574-2.652,5.633,5.633,0,0,0,.743-1.05,6.47,6.47,0,0,0,.716-3.73Z" transform="translate(-9.09 -20.189)" fill="#b8dbef"/>
      <path id="Path_117" data-name="Path 117" d="M16.4,28.76a.862.862,0,0,1-.589-.232L9.342,22.494a.863.863,0,1,1,1.178-1.263L16.4,26.715l5.876-5.484a.863.863,0,0,1,1.178,1.263l-6.465,6.033a.862.862,0,0,1-.589.232" transform="translate(-5.153 -11.934)" fill="#b8dbef"/>
      <path id="Path_118" data-name="Path 118" d="M36.6,10.848a.432.432,0,0,1-.3-.74l3.983-3.9a2.312,2.312,0,0,0,.155-3.122L38.893,1.244a1.057,1.057,0,0,0-1.455-.161L34.914,3.019a.432.432,0,1,1-.525-.685L36.913.4A1.917,1.917,0,0,1,39.555.69L41.1,2.533a3.18,3.18,0,0,1-.212,4.293l-3.983,3.9a.431.431,0,0,1-.3.123" transform="translate(-19.447 0)" fill="#b8dbef"/>
      <path id="Path_119" data-name="Path 119" d="M35.6,3.433,34.265,4.588a.915.915,0,0,1-1.2-1.384l1.338-1.155A.914.914,0,0,1,35.6,3.433" transform="translate(-18.613 -1.038)" fill="#b8dbef"/>
      <path id="Path_120" data-name="Path 120" d="M5.231,10.848a.43.43,0,0,1-.3-.123L.946,6.826A3.18,3.18,0,0,1,.733,2.533L2.277.69A1.917,1.917,0,0,1,4.919.4L7.444,2.334a.432.432,0,1,1-.525.685L4.394,1.084a1.056,1.056,0,0,0-1.455.161L1.4,3.087A2.312,2.312,0,0,0,1.55,6.209l3.983,3.9a.432.432,0,0,1-.3.74" transform="translate(0 0)" fill="#b8dbef"/>
      <path id="Path_121" data-name="Path 121" d="M12.083,3.433,13.42,4.588a.915.915,0,0,0,1.2-1.384L13.278,2.049a.914.914,0,0,0-1.195,1.384" transform="translate(-6.686 -1.038)" fill="#b8dbef"/>
    </g>
  </g>
</svg>
